<svg width="64" height="36" viewBox="0 0 64 36" fill="none" xmlns="http://www.w3.org/2000/svg">
<path d="M13.7888 2.648C11.6448 2.648 9.64475 3.192 7.78875 4.28C5.96475 5.336 4.50875 6.792 3.42075 8.648C2.33275 10.472 1.78875 12.472 1.78875 14.648V20.984C1.78875 23.256 2.10875 25.128 2.74875 26.6C3.64475 28.68 5.00475 30.376 6.82875 31.688C8.65275 33 10.7008 33.736 12.9728 33.896V18.296H27.6128V21.464C27.6128 23.512 27.3088 25.336 26.7008 26.936C25.7088 29.592 24.0448 31.72 21.7088 33.32C19.3728 34.92 16.7328 35.72 13.7888 35.72C11.0048 35.72 8.46075 34.968 6.15675 33.464C3.88475 31.928 2.22075 29.896 1.16475 27.368C0.396753 25.576 0.0127531 23.448 0.0127531 20.984V14.648C0.0127531 12.152 0.620753 9.848 1.83675 7.736C3.08475 5.624 4.76475 3.96 6.87675 2.744C8.98875 1.496 11.2928 0.871999 13.7888 0.871999C15.8688 0.871999 17.7728 1.224 19.5008 1.928C21.2288 2.6 22.7008 3.592 23.9168 4.904C24.9088 5.992 25.7088 7.208 26.3168 8.552C26.9568 9.896 27.2768 11.256 27.2768 12.632H25.5488C25.5168 11.448 25.2128 10.28 24.6368 9.128C24.0928 7.976 23.3888 6.936 22.5248 6.008C20.3808 3.768 17.4688 2.648 13.7888 2.648ZM25.8368 20.024H14.7008V33.896C17.0048 33.736 19.0688 33.016 20.8928 31.736C22.7488 30.424 24.1088 28.696 24.9728 26.552C25.5488 25.048 25.8368 23.352 25.8368 21.464V20.024ZM36.072 1.544H37.992L49.656 22.184L61.272 1.544H63.048V34.952H36.072V1.544ZM37.848 33.224H61.272V5.144L50.472 24.152H48.792L37.848 4.856V33.224Z" fill="white"/>
</svg>
